<svg width="32" height="32" fill="none" xmlns="http://www.w3.org/2000/svg"><g opacity=".3"><path d="M18.888 20.52c.17 0 .304.05.4.152a.519.519 0 0 1 .144.384V22H11.72v-.536c0-.106.021-.218.064-.336A.82.82 0 0 1 12 20.8l3.632-3.64c.304-.304.579-.597.824-.88a6.43 6.43 0 0 0 .624-.84c.17-.282.301-.57.392-.864.096-.293.144-.603.144-.928 0-.32-.05-.6-.152-.84a1.667 1.667 0 0 0-.416-.608 1.727 1.727 0 0 0-.624-.36 2.44 2.44 0 0 0-.776-.12c-.277 0-.533.04-.768.12-.23.08-.435.192-.616.336a1.993 1.993 0 0 0-.456.512c-.123.197-.21.41-.264.64-.075.203-.17.339-.288.408-.112.07-.277.085-.496.048l-.816-.144a4.157 4.157 0 0 1 .44-1.408 3.37 3.37 0 0 1 1.96-1.64 4.531 4.531 0 0 1 1.392-.208c.501 0 .963.075 1.384.224.427.144.795.355 1.104.632.31.277.552.616.728 1.016.176.395.264.843.264 1.344 0 .427-.064.824-.192 1.192-.123.363-.293.71-.512 1.04-.213.33-.464.653-.752.968-.283.31-.584.624-.904.944l-2.912 2.976c.224-.058.448-.107.672-.144.23-.037.445-.056.648-.056h3.624Z" fill="#fff"/><circle cx="16" cy="16" r="15.5" stroke="#fff"/></g></svg>