<svg width="32" height="32" fill="none" xmlns="http://www.w3.org/2000/svg"><path d="M11.992 13.64c.08-.533.23-1.003.448-1.408a3.37 3.37 0 0 1 1.96-1.64 4.528 4.528 0 0 1 1.392-.208c.496 0 .952.072 1.368.216.416.139.77.339 1.064.6.299.256.53.565.696.928.165.363.248.763.248 1.2 0 .368-.045.693-.136.976-.09.283-.221.53-.392.744a2.293 2.293 0 0 1-.608.544 3.86 3.86 0 0 1-.808.36c.73.203 1.28.533 1.648.992.368.453.552 1.03.552 1.728 0 .539-.101 1.024-.304 1.456-.203.427-.48.79-.832 1.088-.352.293-.763.52-1.232.68-.464.155-.96.232-1.488.232-.603 0-1.12-.072-1.552-.216-.432-.15-.8-.355-1.104-.616a3.5 3.5 0 0 1-.76-.952 7.257 7.257 0 0 1-.504-1.224l.68-.288a.867.867 0 0 1 .512-.064.483.483 0 0 1 .36.28l.272.544c.107.197.248.387.424.568.176.176.395.325.656.448.267.123.6.184 1 .184.384 0 .72-.061 1.008-.184.288-.128.528-.29.72-.488a2.069 2.069 0 0 0 .576-1.4c0-.299-.037-.573-.112-.824a1.298 1.298 0 0 0-.432-.64c-.208-.181-.499-.323-.872-.424-.373-.101-.859-.152-1.456-.152v-1.136c.49-.005.904-.056 1.24-.152.341-.096.616-.23.824-.4a1.46 1.46 0 0 0 .448-.608c.096-.235.144-.496.144-.784 0-.315-.048-.59-.144-.824a1.539 1.539 0 0 0-.408-.584 1.567 1.567 0 0 0-.616-.352c-.235-.08-.49-.12-.768-.12-.277 0-.533.04-.768.12a1.993 1.993 0 0 0-1.08.848c-.123.197-.21.41-.264.64-.075.203-.17.339-.288.408-.112.07-.275.085-.488.048l-.824-.144Z" fill="#fff"/><circle cx="16" cy="16" r="15.5" stroke="#fff"/></svg>